<?xml version="1.0" encoding="UTF-8" standalone="no"?>
<!-- Created with Inkscape (http://www.inkscape.org/) -->

<svg
   xmlns:dc="http://purl.org/dc/elements/1.1/"
   xmlns:cc="http://creativecommons.org/ns#"
   xmlns:rdf="http://www.w3.org/1999/02/22-rdf-syntax-ns#"
   xmlns:svg="http://www.w3.org/2000/svg"
   xmlns="http://www.w3.org/2000/svg"
   xmlns:sodipodi="http://sodipodi.sourceforge.net/DTD/sodipodi-0.dtd"
   xmlns:inkscape="http://www.inkscape.org/namespaces/inkscape"
   width="113.47411mm"
   height="112.98985mm"
   viewBox="0 0 113.47411 112.98985"
   version="1.1"
   id="svg8"
   inkscape:version="0.92.4 (5da689c313, 2019-01-14)"
   sodipodi:docname="dessin3.svg">
  <defs
     id="defs2">
    <clipPath
       clipPathUnits="userSpaceOnUse"
       id="clipPath3797">
      <rect
         id="rect3799"
         width="194.30566"
         height="193.04803"
         x="208.13976"
         y="108.1572" />
    </clipPath>
    <clipPath
       id="clipPath3797-6"
       clipPathUnits="userSpaceOnUse">
      <rect
         y="108.1572"
         x="208.13976"
         height="193.04803"
         width="194.30566"
         id="rect3799-1" />
    </clipPath>
  </defs>
  <sodipodi:namedview
     id="base"
     pagecolor="#ffffff"
     bordercolor="#666666"
     borderopacity="1.0"
     inkscape:pageopacity="0.0"
     inkscape:pageshadow="2"
     inkscape:zoom="1.4"
     inkscape:cx="114.19191"
     inkscape:cy="237.11434"
     inkscape:document-units="mm"
     inkscape:current-layer="g3776"
     showgrid="false"
     inkscape:window-width="1920"
     inkscape:window-height="1017"
     inkscape:window-x="-8"
     inkscape:window-y="-8"
     inkscape:window-maximized="1" />
  <metadata
     id="metadata5">
    <rdf:RDF>
      <cc:Work
         rdf:about="">
        <dc:format>image/svg+xml</dc:format>
        <dc:type
           rdf:resource="http://purl.org/dc/dcmitype/StillImage" />
        <dc:title></dc:title>
      </cc:Work>
    </rdf:RDF>
  </metadata>
  <g
     inkscape:label="Calque 1"
     inkscape:groupmode="layer"
     id="layer1"
     transform="translate(-35.867112,-92.338405)">
    <g
       clip-path="url(#clipPath3797-6)"
       transform="matrix(0.59158709,0,0,0.59158709,-87.839827,27.70283)"
       id="g3776">
	<path
   style="fill:#ffffff;fill-opacity:1;stroke-width:2.70458911;stroke-miterlimit:4;stroke-dasharray:none;opacity:1;stroke:#ffffff;stroke-opacity:0.94387758"
   inkscape:connector-curvature="0"
   id="path3768"
   d="m 400.7,228.1 c -0.2,-1.4 -0.5,-2.8 -0.9,-4.2 -1.7,-5.9 -5.3,-11.1 -9.1,-16 -3.1,-4.1 -6.7,-8.1 -11.5,-10.3 -1,-0.5 -2.4,-0.6 -3.1,-1.5 -0.8,-1 -1.4,-2.4 -1.9,-3.6 -1,-2.5 -1.7,-5.5 -0.7,-8.2 1.3,1.1 2.8,1.6 4.5,0.9 1.3,-0.5 2.4,-1.6 2.2,-3.1 -0.4,-3.1 -4.8,-2.7 -6.8,-1.2 -1.1,-2.3 -1.3,-4.3 0.6,-6.2 1,-1 2.3,-2 2.8,-3.4 1.5,-4 -3.4,-7.7 -6,-9.8 -1,-0.8 -2.1,-1.6 -3.1,-2.5 -1,-1 -1.8,-2.1 -2.7,-3.1 -0.8,-0.9 -1.7,-1.5 -2.5,-2.3 -0.6,-0.6 -0.9,-1.3 -1.4,-1.9 -0.3,-0.4 -1.3,-1.5 -1.3,-2 0,-0.4 1.3,-1.5 1.6,-1.8 0.6,-0.7 1.2,-1.5 1.7,-2.3 1.3,-1.9 2.3,-4 3,-6.2 3.1,-10.1 -2.8,-20.2 -10.7,-26.3 -3.7,-2.8 -8.3,-4.5 -13,-3.6 -4,0.8 -7.6,3.2 -10.5,6 -2.8,2.7 -5.1,5.8 -7.1,9 -0.3,0.5 -0.7,1.1 -1,1.7 -0.2,0.3 -0.2,0.6 -0.5,0.6 -0.5,0.1 -1.7,-0.4 -2.2,-0.5 -2.9,-0.6 -5.7,-1.1 -8.7,-1.5 -6,-0.7 -12,-0.9 -18,-0.4 -2.8,0.2 -5.7,0.6 -8.5,1 -1.4,0.2 -2.8,0.5 -4.2,0.8 -0.4,0.1 -1.3,0.5 -1.6,0.3 -0.2,-0.1 -0.4,-0.7 -0.5,-0.9 -3.7,-6.4 -9.1,-13.3 -16.4,-15.6 -10,-3.3 -19.4,5.3 -23.8,13.6 -2.2,4.2 -3.1,8.9 -2.3,13.5 0.8,4.3 3,8.2 5.8,11.5 0.3,0.4 0.6,0.5 0.5,1 -0.1,0.5 -0.9,1.3 -1.2,1.7 -0.8,1.3 -1.6,2.7 -2.3,4 -1.2,2.4 -2.4,4.9 -3,7.5 -0.5,2.2 -1.2,4.5 -1.5,6.8 -0.1,0.6 -0.2,1.2 -0.2,1.8 -0.1,0.7 0,1.6 -0.4,2.2 -0.2,0.3 -0.6,0.5 -0.8,0.7 -0.3,0.3 -0.5,0.7 -0.7,1.1 -0.8,1.9 -0.9,3.9 -1.9,5.7 -0.6,-1 -1.5,-2.1 -2.9,-1.9 -1.1,0.2 -2.1,1.3 -2.4,2.3 -0.9,3 2.1,3.8 4.4,3 0.2,1.1 0.2,2.3 0.2,3.4 -0.1,1.3 -0.4,2.2 -1.5,2.9 -1,-1.8 -2.5,-3.8 -4.7,-4.2 -1.5,-0.2 -2.9,0.5 -3.4,1.9 -1.2,4.2 3.9,5.5 7,4.9 0.6,1.8 0.6,3.6 0,5.5 -0.6,1.5 -1.4,2.9 -2.1,4.4 -0.3,0.7 -0.5,1.6 -0.9,2.3 -0.2,0.5 -0.5,0.6 -1,1 -1.2,1 -2.2,2 -3.2,3.2 -3.9,4.4 -6.5,9.8 -8.3,15.4 -4,12.5 -4.6,26.7 -1.6,39.5 0.4,1.9 1,3.8 1.6,5.6 0.2,0.7 0.5,2.2 1.5,2.2 1.1,0 1.4,-1.8 1.7,-2.5 0.8,-1.5 1.8,-2.9 2.9,-4.2 1,9 1.3,18.1 5.2,26.4 0.9,2 2,3.9 3.3,5.7 0.5,0.7 1.4,2.7 2.5,2.3 0.4,-0.1 0.5,-0.5 0.7,-0.9 0.4,-1.4 0.4,-2.9 0.6,-4.3 0.4,-2.5 0.8,-5 1.2,-7.5 0.9,-5.5 1.9,-11 2.7,-16.5 0.9,1.6 1.8,3.2 2.9,4.7 0.5,0.7 1.3,2.1 2.4,1.4 0.5,-0.3 0.6,-1.3 0.8,-1.8 0.3,-1 0.5,-2 0.6,-3 0.3,-2.1 0.3,-4.2 0.4,-6.3 0.2,-9.2 -0.8,-18.5 -2.1,-27.6 -1.2,-8.5 -3.1,-16.9 -6.8,-24.7 -0.7,-1.5 -1.5,-3 -2.5,-4.3 -0.4,-0.6 -0.9,-1.1 -1.4,-1.6 -0.5,-0.5 -1.6,-0.9 -1.7,-1.5 -0.1,-0.3 0.5,-1.2 0.6,-1.5 0.2,-0.5 0.4,-1 0.6,-1.5 0.4,-1 0.9,-2.1 1.3,-3.1 0.7,-1.9 0.8,-3.9 0.4,-5.8 -0.1,-0.4 -0.4,-1 -0.2,-1.4 0.1,-0.2 0.7,-0.6 0.9,-0.8 0.4,-0.5 0.8,-1.1 1,-1.7 0.7,-1.6 0.8,-3.4 0.6,-5.1 0,-0.3 -0.1,-0.6 -0.1,-0.9 -0.1,-0.8 -0.1,-0.9 0.3,-1.6 0.3,-0.6 0.6,-1.1 0.8,-1.7 0.4,-1.4 0.6,-3 1.2,-4.4 -0.1,8.3 1.5,16.8 4.1,24.7 2.3,6.9 5.6,13.5 9.9,19.4 7.6,10.4 18.3,18.2 30.4,22.4 13.5,4.8 28.5,5.1 42.2,1.1 16.2,-4.8 30.1,-15.8 38.3,-30.6 4.1,-7.4 6.7,-15.5 8.1,-23.8 0.8,-4.7 1.2,-9.4 1,-14.1 -0.2,-4.1 -0.7,-8.5 -2.1,-12.3 -0.6,-1.6 -1.1,-3.1 -1.6,-4.7 1.7,1.8 3.5,3.3 5.4,4.8 2,1.7 5.8,4.6 3.9,7.6 -1.3,2 -3.5,3.1 -3.8,5.6 -0.1,1.1 0,2.2 0.4,3.2 0.1,0.5 0.3,1 0.5,1.4 0.4,0.8 0.5,1 0.4,1.8 -1.1,5 -0.3,9.8 2.7,14 3.3,4.7 -1.5,10.8 -3.8,14.9 -0.4,0.8 -2.9,4.4 -1,4.9 0.9,0.2 2.4,-0.9 3.1,-1.4 1,-0.6 1.9,-1.4 2.8,-2.2 -0.7,6.6 -3.7,12.5 -6.5,18.4 -0.4,0.8 -2.3,4 0,3.8 1.2,-0.1 2.6,-1.1 3.6,-1.7 1,-0.7 1.9,-1.4 2.8,-2.2 -0.4,2.5 -0.5,5 -0.8,7.4 -0.4,3 -1.3,5.7 -2.6,8.4 -0.6,1.3 -1.3,2.5 -1.9,3.7 -0.5,1 -1.4,2.2 -1.6,3.3 -0.3,1.5 1,1.4 2.1,1.3 8.5,-1.2 15.6,-7.1 19.3,-14.7 0.7,2 0.6,4.1 0,6.2 -0.2,0.7 -0.8,1.8 0.3,2.1 1,0.3 1.9,-0.9 2.5,-1.5 1.1,-1.1 2,-2.4 2.6,-3.8 2.6,-5.2 2.7,-11.5 1.1,-17 0.8,0.9 1.5,1.9 2.4,2.8 0.4,0.4 1,0.7 1.5,0.2 0.6,-0.2 0.2,-1.4 0.1,-2.1 z m -5.5,-4.2 c 0,0 -0.1,0 -0.1,-0.1 -1.8,-0.4 -1.2,1.4 -0.8,2.4 0.8,2.1 1.3,4.4 1.4,6.7 0.3,4.4 -0.5,9 -3.2,12.7 0.1,-1.1 0.1,-2.2 -0.1,-3.3 -0.2,-1.1 -0.7,-3.3 -1.7,-3.9 -0.6,-0.4 -1.1,-0.1 -1.5,0.5 -0.5,0.7 -0.7,1.6 -1.1,2.4 -0.4,0.7 -0.8,1.4 -1.2,2.1 -3.5,5.6 -9.1,9.6 -15.6,10.8 1.4,-2.9 3.1,-5.8 4.2,-8.9 1.3,-3.4 1.4,-6.8 1.7,-10.3 0.1,-1 0.2,-2.1 0.5,-3.1 0.2,-0.8 0.6,-1.6 0.7,-2.4 0,-0.6 -0.1,-1.1 -0.8,-1.2 -1,-0.1 -1.9,1.2 -2.6,1.7 -1.2,1.1 -2.5,2.1 -3.9,2.9 2.5,-5.2 5.1,-10.5 6.3,-16.2 0.3,-1.4 0.4,-2.7 0.5,-4.1 0,-0.7 0.3,-1.7 -0.5,-2.2 -0.8,-0.4 -1.4,0.3 -1.9,0.8 -1.1,1 -2.2,1.9 -3.4,2.7 2,-3.9 4.9,-7.6 5.5,-12 3.7,6.7 5.4,14.4 6,21.9 0.5,5.9 1.2,13.3 -2.2,18.5 -0.4,0.6 -1.4,1.4 -1.1,2.2 0.2,0.8 1,0.9 1.5,0.5 0.8,-0.6 1.5,-2 2,-2.9 0.6,-1.3 1.1,-2.7 1.4,-4.1 1.3,-5.7 0.7,-11.8 0,-17.5 -0.9,-7.4 -2.9,-14.8 -6.8,-21.2 5.3,2.4 9.1,7.2 12.4,11.8 3.4,4.7 6.5,9.7 7.7,15.5 -1,-1.1 -2,-2 -3.3,-2.7 z M 377,183.5 c -1,0.2 -1.8,-0.3 -2.4,-0.9 0.6,-0.6 1.3,-0.9 2.1,-0.8 0.5,0.1 1.1,0.3 1.3,0.8 0.2,0.5 -0.5,0.8 -1,0.9 z m -33.5,-72.3 c 4.3,-0.6 8.2,1.1 11.5,3.8 3.3,2.7 6.3,6.2 8.2,10.1 3.6,7.4 1.9,15.5 -3.3,21.6 -0.2,0.3 -0.4,0.5 -0.7,0.8 -0.1,0.1 -0.1,0.2 -0.2,0.2 -0.1,0.3 -0.3,0.3 -0.3,0 -0.2,-0.1 -0.7,-0.9 -0.9,-1.1 -0.3,-0.4 -0.3,-0.4 -0.2,-0.8 0.1,-0.5 0.6,-1.1 0.8,-1.6 0.2,-0.6 0.5,-1.2 0.7,-1.8 0.7,-2.4 0.9,-5 0.3,-7.5 -0.7,-3.4 -2.6,-6.5 -4.9,-9.1 -2.4,-2.8 -5.5,-5.5 -9.2,-6.3 -3.7,-0.9 -7.3,0.3 -10.3,2.4 -1.6,1.2 -3.1,2.6 -4.4,4.1 -0.4,0.5 -1.1,1.8 -1.7,2.1 -0.4,0.2 -1.1,-0.2 -1.5,-0.3 -0.6,-0.2 -1.1,-0.3 -1.7,-0.5 3.7,-6.9 9.6,-14.7 17.8,-16.1 z m 0.6,23.9 c -4.3,-2.6 -8.8,-4.6 -13.5,-6.3 2.4,-3.1 5.5,-6.3 9.4,-7.3 4.7,-1.3 8.9,1.4 12,4.7 2.8,2.9 5.1,6.5 5.5,10.6 0.3,2.7 -0.4,5.4 -1.6,7.8 -3.5,-3.7 -7.5,-6.9 -11.8,-9.5 z m 16,35.8 c 1.8,-1.6 3.6,-3.2 5.4,-4.8 0.5,2.2 0.9,4.4 1.2,6.7 -2.2,-0.7 -4.4,-1.3 -6.6,-1.9 z m 6.7,12.1 c -1.7,19.3 -10,37.7 -25.8,49.5 -4.7,3.5 -9.8,6.2 -15.2,8.3 2.2,-3.3 4,-6.8 5.1,-10.6 1.2,-4.1 2.2,-9.2 1,-13.4 -2.5,-8.3 -12.8,-11.5 -20.4,-12.8 -9,-1.4 -19.1,-1.1 -27.7,2.1 -4.9,1.9 -10,5.1 -11.9,10.3 -1.3,3.6 -0.6,7.7 0.2,11.3 1,4.5 2.9,8.7 5.4,12.5 -10,-4 -18.8,-10.6 -25.5,-19 -8.2,-10.4 -12.8,-23.3 -14.4,-36.3 -0.2,-2 -0.4,-4 -0.5,-6 0,-0.9 0,-1.8 0,-2.7 0,-0.5 -0.1,-1 0.3,-1.5 0.3,-0.3 1.5,-0.5 1.9,-0.6 3.4,-1 6.9,-1.9 10.5,-2.6 7.8,-1.6 15.6,-2.6 23.5,-3.3 16.7,-1.5 33.4,-1.5 50.1,-0.6 8.6,0.5 17.3,1.4 25.8,2.8 4,0.7 8.1,1.5 12,2.5 1.2,0.3 2.4,0.6 3.6,1 0.3,0.1 0.7,0.2 1,0.3 0.9,0.3 1.1,0.3 1.3,1.3 0.2,2.5 -0.1,5.2 -0.3,7.5 z m -63.9,62.1 c -6.1,0 -12.2,-0.7 -18,-2.3 -1.2,-0.3 -2.9,-0.6 -4,-1.3 -0.8,-0.5 -1.4,-1.7 -1.9,-2.5 -1.2,-1.9 -2.3,-4 -3.2,-6.1 -1,-2.4 -1.7,-4.9 -2.1,-7.4 -0.4,-2.5 -0.8,-5.3 -0.1,-7.8 1.1,-4 4.6,-6.6 8.1,-8.4 4.5,-2.2 9.6,-3.3 14.7,-3.8 5.7,-0.6 11.5,-0.3 17,0.8 4.6,1 9.5,2.5 13.1,5.7 1.7,1.5 3.2,3.4 3.7,5.7 0.7,2.8 0.2,6 -0.3,8.8 -1,5.2 -3.4,10.1 -6.5,14.4 -1,1.4 -2.8,1.6 -4.4,2 -1.6,0.4 -3.2,0.8 -4.9,1.1 -3.8,0.7 -7.5,1.1 -11.2,1.1 z m -59.1,-74.2 c -2.3,0.6 -4.5,1.2 -6.7,1.9 0.2,-2.3 0.5,-4.6 1.1,-6.9 1.9,1.7 3.8,3.4 5.6,5 z m -1.3,-16.2 c 2.2,-0.6 4.5,-1.1 6.8,-1.6 -1.3,5.5 -2.6,11 -4,16.5 -1.7,-1.5 -3.4,-3 -5.1,-4.5 -0.4,-0.4 -0.9,-0.7 -1.2,-1.1 -0.5,-0.5 -0.3,-0.3 0,-1.1 1,-2.8 2,-5.6 3.5,-8.2 z m 16.9,-17.5 c 12.3,-7.7 27.1,-11.1 41.6,-11.1 14.4,-0.1 29.2,3 41.6,10.4 6.6,3.9 12.4,9.2 16.7,15.6 -14.5,-3.4 -29.6,-4.8 -44.5,-5.3 -15.5,-0.6 -31.1,-0.2 -46.5,1.4 -8.2,0.9 -16.4,2.1 -24.4,4 4,-6 9.4,-11 15.5,-15 z m 97.4,33 c -4.7,-1 -9.4,-1.8 -14.2,-2.4 3.4,-4.6 6.9,-9.1 10.3,-13.7 1.3,5.3 2.6,10.7 3.9,16.1 z m -109.6,0 c 1.3,-5.4 2.6,-10.7 3.9,-16.1 3.4,4.6 6.9,9.1 10.3,13.7 -4.8,0.6 -9.5,1.4 -14.2,2.4 z m 5.1,-17.7 c 5.6,-1 11.3,-1.8 16.9,-2.4 -2.1,5.5 -4.2,10.9 -6.4,16.4 -3.4,-4.7 -7,-9.3 -10.5,-14 z m 82.4,-2.4 c 5.7,0.6 11.3,1.3 16.9,2.4 -3.5,4.7 -7.1,9.3 -10.6,14 -2.1,-5.5 -4.2,-10.9 -6.3,-16.4 z m 4.6,17.2 c -4.8,-0.6 -9.5,-1 -14.3,-1.3 2.7,-4.9 5.4,-9.8 8.1,-14.7 2,5.3 4.1,10.7 6.2,16 z m -7.7,-17.5 c -2.7,5 -5.5,9.9 -8.2,14.9 -2.7,-5.3 -5.4,-10.6 -8.1,-16 5.4,0.3 10.9,0.6 16.3,1.1 z m -9.9,16 c -6,-0.3 -11.9,-0.5 -17.9,-0.6 3.3,-5.2 6.5,-10.3 9.8,-15.5 2.7,5.4 5.4,10.7 8.1,16.1 z m -57,1.5 c 2.1,-5.3 4.1,-10.7 6.2,-16 2.7,4.9 5.4,9.8 8.1,14.7 -4.8,0.3 -9.6,0.7 -14.3,1.3 z m 7.6,-17.5 c 5.4,-0.5 10.9,-0.8 16.4,-1 -2.7,5.3 -5.4,10.6 -8.1,16 -2.8,-5 -5.5,-10 -8.3,-15 z m 19.8,-1.1 c 6.6,-0.2 13.2,-0.2 19.8,0 -3.3,5.2 -6.6,10.5 -9.9,15.7 -3.3,-5.3 -6.6,-10.5 -9.9,-15.7 z m 8.1,16.5 c -6,0 -12,0.2 -17.9,0.6 2.7,-5.3 5.4,-10.7 8.2,-16 3.2,5.1 6.4,10.3 9.7,15.4 z m 58.5,4.4 c -1.3,-5.5 -2.6,-11 -4,-16.5 1.2,0.3 2.5,0.5 3.7,0.8 0.6,0.1 1.5,0.2 2,0.5 0.7,0.3 0.9,1 1.2,1.6 1.3,2.5 2.4,5.2 3.2,8 -2,1.9 -4.1,3.8 -6.1,5.6 z M 251.9,126.1 c 3,-3.2 7,-5.8 11.6,-4.8 4,0.9 7.2,4.1 9.7,7.2 -9.5,3.3 -18.4,8.3 -25.3,15.6 -3.1,-6.4 -0.7,-12.9 4,-18 z m 24.4,1.5 c -0.8,0.2 -0.9,0.4 -1.5,-0.2 -0.9,-0.9 -1.6,-2 -2.6,-2.9 -1.7,-1.8 -3.8,-3.3 -6.1,-4.3 -4.7,-2 -9.5,-0.7 -13.3,2.5 -4,3.3 -7.4,7.9 -8.2,13.1 -0.3,1.8 -0.2,3.6 0.1,5.3 0.2,0.9 0.4,1.7 0.7,2.5 0.3,0.7 1,1.7 0.8,2.3 -0.1,0.2 -1.2,1.7 -1.3,1.7 -0.2,0 -1,-1.1 -1.1,-1.3 -0.9,-1.1 -1.7,-2.2 -2.4,-3.4 -1.7,-2.9 -2.6,-6.1 -2.7,-9.5 0,-4.2 1.5,-8 3.8,-11.5 2.7,-4 6.4,-7.9 10.8,-9.8 7.5,-3.3 14.6,1.4 19.4,7 2.1,2.4 3.8,5 5.4,7.7 -0.5,0.4 -1.2,0.6 -1.8,0.8 z M 228.6,183 c -0.3,-0.2 -0.6,-0.4 -0.5,-0.8 0.1,-0.4 0.5,-0.8 0.9,-0.9 0.7,-0.2 1.1,0.9 1.3,1.5 -0.5,0.2 -1,0.4 -1.7,0.2 z m 4.8,36 c 0.7,1.9 1.3,3.9 1.8,5.9 0.3,1.1 0.6,1.8 -0.2,2.7 -0.7,0.8 -1.5,1.5 -2.3,2.3 -2.8,2.8 -5.6,5.6 -8.4,8.4 -0.3,-4.9 -0.4,-9.9 -0.1,-14.8 0.3,-5.1 0.9,-10.2 2.5,-15.1 3.9,1.9 5.4,6.8 6.7,10.6 z m -7,63.5 c 1.6,-0.7 3,-0.2 3.9,1.3 0.8,1.4 0.3,2.9 0.1,4.4 -0.5,2.8 -0.9,5.7 -1.3,8.5 -1.4,-2.1 -2.6,-4.2 -3.6,-6.5 -0.6,-1.4 -1.2,-2.8 -1.6,-4.3 -0.4,-1.5 1.1,-2.8 2.5,-3.4 z m -3.4,0.2 c -1.3,-6.2 -1.5,-12.5 -2.3,-18.7 -0.1,-1.1 -0.8,-2.1 -1.9,-1.1 -0.9,0.8 -1.6,2.1 -2.4,3.1 -0.7,1 -1.4,2 -2,3 -3.1,-9.6 -3.6,-19.7 -2.5,-29.7 2.1,1.6 4.1,3.3 6.1,5.1 0.9,0.8 1.8,1.7 2.7,2.6 0.8,0.8 2,1.7 2.7,2.7 0.6,1 0.6,2.9 0.8,4 0.3,1.5 0.5,3 0.8,4.6 0.5,2.9 1,5.8 1.3,8.8 0.1,1 0,2.6 0.4,3.5 0.2,0.3 0.4,0.6 0.8,0.6 1.6,0.2 1,-2.2 0.9,-3 -0.6,-5.5 -1.8,-10.9 -2.6,-16.4 -0.1,-1 -0.5,-2.3 0.1,-3.2 0.4,-0.6 1.1,-1 1.6,-1.5 1.2,-1 2.4,-2.1 3.6,-3 2.3,-1.9 4.6,-3.7 6.9,-5.5 1,6.4 1.7,12.8 2.1,19.3 0.3,5.4 0.9,11.4 -0.6,16.6 -1.3,-1.8 -2.3,-3.8 -3.5,-5.7 -0.5,-0.7 -1.4,-2.1 -2.2,-0.9 -0.5,0.6 -0.4,2.1 -0.5,2.8 -0.2,1.4 -0.4,2.7 -0.6,4.1 -0.4,2.5 -0.8,5 -1.2,7.5 -2.5,-3.1 -6.1,-2.1 -8.5,0.4 z m 14.3,-46.3 c -0.2,0.3 -0.7,0.6 -1.1,0.9 -0.8,0.6 -1.6,1.3 -2.3,1.9 -3,2.4 -6,4.7 -8.8,7.3 -0.1,-0.8 -0.2,-1.6 -0.3,-2.3 -0.1,-0.9 -0.4,-2.1 -0.3,-2.9 0.1,-1 1.2,-1.7 1.9,-2.4 0.7,-0.7 1.3,-1.4 2,-2 2.6,-2.6 5.2,-5.1 7.7,-7.7 0.4,1.9 0.8,3.7 1.1,5.6 0.3,0.5 0.5,1.1 0.1,1.6 z m -14.9,0.8 c -1.6,-2.1 -3.3,-4.1 -5.2,-5.9 -0.4,-0.4 -0.9,-0.8 -1.4,-1.2 -0.4,-0.3 -1.5,-0.8 -1.7,-1.3 -0.2,-0.5 0.3,-1.5 0.4,-2.1 0.2,-0.8 0.5,-1.5 0.7,-2.3 1.9,-5.5 4.8,-10.7 9,-14.9 -2.1,9 -2.3,18.5 -1.8,27.7 z m -2.3,0.2 c 1.1,1.3 2.4,2.7 2.6,4.4 0.2,1.6 0.3,3.2 0.5,4.8 -2.4,-2.4 -4.8,-4.7 -7.4,-6.8 -1,-0.8 -3.4,-2 -3.4,-3.3 -0.1,-1.8 0.6,-3.8 1,-5.6 2.6,1.8 4.7,4.1 6.7,6.5 z m 3.2,-47.2 c -0.1,-0.5 -0.3,-1.4 0.4,-1.5 0.5,0 1,0.3 1.4,0.5 1.1,0.6 1.8,1.5 2.4,2.5 -1.6,0.4 -3.6,0.3 -4.2,-1.5 z"
   class="st9" />

	<path
   style="fill:#ffffff;fill-opacity:1;stroke-width:2.70458911;stroke-miterlimit:4;stroke-dasharray:none;opacity:1;stroke:#ffffff;stroke-opacity:0.94387758"
   inkscape:connector-curvature="0"
   id="path3770"
   d="m 309.3,216.8 c -2,-1.2 -4.7,-1.1 -7,-1.1 -2.1,0 -4.4,-0.1 -6.3,0.7 -1.9,0.8 -2.8,2.6 -3.1,4.5 -0.3,2.5 0.3,4.3 2.3,5.9 0.9,0.7 1.9,1.3 2.9,1.8 0.5,0.2 0.9,0.4 1.4,0.6 0.5,0.2 1.6,0.3 1.8,0.7 0.4,0.6 0,2.4 0,3.1 0,1 0,2 0,3 0,0.8 -0.4,2.7 0.5,3.2 0.5,0.3 1.1,0 1.4,-0.4 0.2,-0.4 0.1,-1.2 0.1,-1.6 0,-1.2 0,-2.4 0,-3.6 0,-1 0,-2 0,-3 0,-0.7 -0.1,-0.7 0.3,-1 0.2,-0.1 0.7,-0.2 0.9,-0.3 1.2,-0.4 2.4,-0.9 3.4,-1.6 1.8,-1.1 3.6,-2.8 3.7,-5 0.3,-2.1 -0.3,-4.7 -2.3,-5.9 z"
   class="st9" />

	<path
   style="fill:#ffffff;fill-opacity:1;stroke-width:2.70458911;stroke-miterlimit:4;stroke-dasharray:none;opacity:1;stroke:#ffffff;stroke-opacity:0.94387758"
   inkscape:connector-curvature="0"
   id="path3772"
   d="m 273.7,177.1 c -5.1,0.1 -8.8,4.2 -10.2,8.9 -1.6,5.2 -0.6,11.5 3.2,15.5 3.3,3.5 8.5,4.2 12.5,1.3 4.4,-3.2 6,-9.3 5.2,-14.5 -0.8,-5.5 -4.7,-11.1 -10.7,-11.2 z m -2,5.7 c 2.5,0 3.9,2.8 3.9,5 0,2.2 -1.3,5 -3.9,5 -2.6,0 -3.8,-2.8 -3.9,-5 0.1,-2.2 1.3,-5 3.9,-5 z m 4.2,11.1 c 3.2,0 3.1,4.7 0,4.9 -3.1,-0.2 -3.2,-4.9 0,-4.9 z"
   class="st9" />

	<path
   style="fill:#ffffff;fill-opacity:1;stroke-width:2.70458911;stroke-miterlimit:4;stroke-dasharray:none;opacity:1;stroke:#ffffff;stroke-opacity:0.94387758"
   inkscape:connector-curvature="0"
   id="path3774"
   d="m 330.9,177.1 c -5.1,0.1 -8.8,4.2 -10.2,8.9 -1.6,5.2 -0.6,11.5 3.2,15.5 3.3,3.5 8.5,4.2 12.5,1.3 4.4,-3.2 6,-9.3 5.2,-14.5 -0.8,-5.5 -4.7,-11.1 -10.7,-11.2 z m -1.9,5.7 c 2.5,0 3.9,2.8 3.9,5 0,2.2 -1.3,5 -3.9,5 -2.6,0 -3.8,-2.8 -3.9,-5 0.1,-2.2 1.3,-5 3.9,-5 z m 4.2,11.1 c 3.2,0 3.1,4.7 0,4.9 -3.2,-0.2 -3.2,-4.9 0,-4.9 z"
   class="st9" />

</g>
  </g>
  <style
     type="text/css"
     id="style3754">
	.st0{fill:#99827A;}
	.st1{fill:#6C7786;}
	.st2{fill:#462D1A;}
	.st3{fill:#81B7BA;}
	.st4{fill:#7BBDAA;}
	.st5{fill:#F7A592;}
	.st6{fill:#516E76;}
	.st7{fill:#685850;}
	.st8{fill:#A67D50;}
	.st9{fill:#8EA184;}
	.st10{fill:#AA8D86;}
	.st11{fill:#716558;}
	.st12{fill:#F06666;}
	.st13{fill:#2D556B;}
	.st14{fill:#634E42;}
	.st15{fill:#463F1C;}
	.st16{fill:#534741;}
	.st17{fill:#998675;}
	.st18{fill:#B99875;}
	.st19{fill:#AE9C96;}
	.st20{fill:#F9B8A9;}
	.st21{fill:#9BC6C8;}
	.st22{fill:#AFBDC4;}
	.st23{fill:#BDCCD4;}
	.st24{fill:#221F20;}
	.st25{fill:#BE6F77;}
</style>
  <style
     id="style3754-0"
     type="text/css">
	.st0{fill:#99827A;}
	.st1{fill:#6C7786;}
	.st2{fill:#462D1A;}
	.st3{fill:#81B7BA;}
	.st4{fill:#7BBDAA;}
	.st5{fill:#F7A592;}
	.st6{fill:#516E76;}
	.st7{fill:#685850;}
	.st8{fill:#A67D50;}
	.st9{fill:#8EA184;}
	.st10{fill:#AA8D86;}
	.st11{fill:#716558;}
	.st12{fill:#F06666;}
	.st13{fill:#2D556B;}
	.st14{fill:#634E42;}
	.st15{fill:#463F1C;}
	.st16{fill:#534741;}
	.st17{fill:#998675;}
	.st18{fill:#B99875;}
	.st19{fill:#AE9C96;}
	.st20{fill:#F9B8A9;}
	.st21{fill:#9BC6C8;}
	.st22{fill:#AFBDC4;}
	.st23{fill:#BDCCD4;}
	.st24{fill:#221F20;}
	.st25{fill:#BE6F77;}
</style>
</svg>
