<?xml version="1.0" encoding="UTF-8" standalone="no"?>
<!-- Created with Inkscape (http://www.inkscape.org/) -->

<svg
   xmlns:dc="http://purl.org/dc/elements/1.1/"
   xmlns:cc="http://creativecommons.org/ns#"
   xmlns:rdf="http://www.w3.org/1999/02/22-rdf-syntax-ns#"
   xmlns:svg="http://www.w3.org/2000/svg"
   xmlns="http://www.w3.org/2000/svg"
   xmlns:sodipodi="http://sodipodi.sourceforge.net/DTD/sodipodi-0.dtd"
   xmlns:inkscape="http://www.inkscape.org/namespaces/inkscape"
   width="113.47411mm"
   height="112.98985mm"
   viewBox="0 0 113.47411 112.98985"
   version="1.1"
   id="svg8"
   inkscape:version="0.92.4 (5da689c313, 2019-01-14)"
   sodipodi:docname="dessin3.svg">
  <defs
     id="defs2">
    <clipPath
       clipPathUnits="userSpaceOnUse"
       id="clipPath3797">
      <rect
         id="rect3799"
         width="194.30566"
         height="193.04803"
         x="208.13976"
         y="108.1572" />
    </clipPath>
    <clipPath
       id="clipPath3797-6"
       clipPathUnits="userSpaceOnUse">
      <rect
         y="108.1572"
         x="208.13976"
         height="193.04803"
         width="194.30566"
         id="rect3799-1" />
    </clipPath>
  </defs>
  <sodipodi:namedview
     id="base"
     pagecolor="#ffffff"
     bordercolor="#666666"
     borderopacity="1.0"
     inkscape:pageopacity="0.0"
     inkscape:pageshadow="2"
     inkscape:zoom="1.4"
     inkscape:cx="114.19191"
     inkscape:cy="237.11434"
     inkscape:document-units="mm"
     inkscape:current-layer="g3776"
     showgrid="false"
     inkscape:window-width="1920"
     inkscape:window-height="1017"
     inkscape:window-x="-8"
     inkscape:window-y="-8"
     inkscape:window-maximized="1" />
  <metadata
     id="metadata5">
    <rdf:RDF>
      <cc:Work
         rdf:about="">
        <dc:format>image/svg+xml</dc:format>
        <dc:type
           rdf:resource="http://purl.org/dc/dcmitype/StillImage" />
        <dc:title></dc:title>
      </cc:Work>
    </rdf:RDF>
  </metadata>
  <g
     inkscape:label="Calque 1"
     inkscape:groupmode="layer"
     id="layer1"
     transform="translate(-35.867112,-92.338405)">
    <g
       clip-path="url(#clipPath3797-6)"
       transform="matrix(0.59158709,0,0,0.59158709,-87.839827,27.70283)"
       id="g3776">
	<path
   style="opacity:1;fill:#ffffff;fill-opacity:1;stroke:#ffffff;stroke-width:1.66246212;stroke-miterlimit:4;stroke-dasharray:none;stroke-opacity:1"
   inkscape:connector-curvature="0"
   id="path3768"
   d="m 399.75931,228.3466 c -0.1967,-1.37689 -0.49175,-2.75378 -0.88515,-4.13066 -1.67193,-5.8026 -5.2125,-10.91676 -8.94976,-15.73586 -3.04883,-4.03232 -6.5894,-7.96628 -11.31015,-10.12996 -0.98349,-0.49175 -2.36038,-0.5901 -3.04883,-1.47524 -0.78679,-0.98349 -1.37688,-2.36038 -1.86863,-3.54057 -0.98349,-2.45872 -1.67193,-5.4092 -0.68844,-8.06462 1.27854,1.08184 2.75377,1.57358 4.42571,0.88514 1.27854,-0.49175 2.36038,-1.57359 2.16368,-3.04882 -0.3934,-3.04883 -4.72076,-2.65543 -6.68774,-1.18019 -1.08184,-2.26203 -1.27854,-4.22901 0.59009,-6.09765 0.98349,-0.98349 2.26203,-1.96698 2.75378,-3.34387 1.47524,-3.93396 -3.34387,-7.57288 -5.90095,-9.63821 -0.98349,-0.78679 -2.06533,-1.57359 -3.04882,-2.45873 -0.98349,-0.98349 -1.77028,-2.06533 -2.65543,-3.04882 -0.78679,-0.88514 -1.67193,-1.47524 -2.45872,-2.26203 -0.5901,-0.59009 -0.88515,-1.27854 -1.37689,-1.86863 -0.29505,-0.3934 -1.27854,-1.47524 -1.27854,-1.96699 0,-0.39339 1.27854,-1.47523 1.57359,-1.77028 0.59009,-0.68844 1.18018,-1.47524 1.67193,-2.26203 1.27854,-1.86863 2.26203,-3.93396 2.95047,-6.09764 3.04883,-9.93326 -2.75377,-19.86652 -10.52335,-25.86582 -3.63892,-2.75378 -8.16298,-4.42571 -12.78539,-3.54057 -3.93396,0.78679 -7.47453,3.14717 -10.32665,5.90095 -2.75378,2.65542 -5.01581,5.70425 -6.98279,8.85142 -0.29505,0.49174 -0.68844,1.08184 -0.98349,1.67193 -0.1967,0.29505 -0.1967,0.5901 -0.49175,0.5901 -0.49174,0.0983 -1.67193,-0.3934 -2.16368,-0.49175 -2.85212,-0.59009 -5.6059,-1.08184 -8.55637,-1.47523 -5.90095,-0.68845 -11.80189,-0.88515 -17.70284,-0.3934 -2.75378,0.1967 -5.6059,0.59009 -8.35967,0.98349 -1.37689,0.1967 -2.75378,0.49175 -4.13067,0.78679 -0.39339,0.0983 -1.27854,0.49175 -1.57358,0.29505 -0.1967,-0.0984 -0.3934,-0.68844 -0.49175,-0.88514 -3.63892,-6.29434 -8.94977,-13.08043 -16.12925,-15.34246 -9.83491,-3.24552 -19.07973,5.2125 -23.40709,13.37548 -2.16368,4.13066 -3.04882,8.75307 -2.26203,13.27713 0.78679,4.22901 2.95047,8.06462 5.70425,11.31014 0.29504,0.3934 0.59009,0.49175 0.49174,0.9835 -0.0984,0.49174 -0.88514,1.27853 -1.18019,1.67193 -0.78679,1.27854 -1.57358,2.65543 -2.26203,3.93396 -1.18019,2.36038 -2.36038,4.81911 -2.95047,7.37619 -0.49175,2.16368 -1.18019,4.42571 -1.47524,6.68774 -0.0984,0.59009 -0.19669,1.18019 -0.19669,1.77028 -0.0984,0.68845 0,1.57359 -0.3934,2.16368 -0.1967,0.29505 -0.5901,0.49175 -0.78679,0.68845 -0.29505,0.29504 -0.49175,0.68844 -0.68845,1.08184 -0.78679,1.86863 -0.88514,3.83561 -1.86863,5.6059 -0.5901,-0.9835 -1.47524,-2.06534 -2.85213,-1.86864 -1.08184,0.1967 -2.06533,1.27854 -2.36037,2.26203 -0.88515,2.95048 2.06533,3.73727 4.32736,2.95048 0.19669,1.08184 0.19669,2.26203 0.19669,3.34387 -0.0983,1.27853 -0.39339,2.16368 -1.47523,2.85212 -0.98349,-1.77028 -2.45873,-3.73727 -4.62241,-4.13066 -1.47524,-0.1967 -2.85212,0.49174 -3.34387,1.86863 -1.18019,4.13066 3.83562,5.4092 6.88444,4.81911 0.59009,1.77028 0.59009,3.54056 0,5.4092 -0.5901,1.47523 -1.37689,2.85212 -2.06533,4.32736 -0.29505,0.68844 -0.49175,1.57358 -0.88515,2.26203 -0.19669,0.49174 -0.49174,0.59009 -0.98349,0.98349 -1.18019,0.98349 -2.16368,1.96698 -3.14717,3.14717 -3.83561,4.32736 -6.39269,9.63821 -8.16297,15.14576 -3.93397,12.29364 -4.52406,26.25922 -1.57359,38.8479 0.3934,1.86864 0.98349,3.73727 1.57359,5.50755 0.19669,0.68845 0.49174,2.16369 1.47523,2.16369 1.08184,0 1.37689,-1.77029 1.67194,-2.45873 0.78679,-1.47524 1.77028,-2.85213 2.85212,-4.13067 0.98349,8.85142 1.27854,17.80119 5.11416,25.96417 0.88514,1.96698 1.96698,3.83562 3.24552,5.6059 0.49174,0.68844 1.37688,2.65543 2.45872,2.26203 0.3934,-0.0984 0.49175,-0.49175 0.68845,-0.88514 0.39339,-1.37689 0.39339,-2.85213 0.59009,-4.22901 0.3934,-2.45873 0.7868,-4.91746 1.18019,-7.37619 0.88514,-5.4092 1.86863,-10.8184 2.65543,-16.2276 0.88514,1.57358 1.77028,3.14717 2.85212,4.62241 0.49175,0.68844 1.27854,2.06533 2.36038,1.37688 0.49175,-0.29504 0.5901,-1.27853 0.78679,-1.77028 0.29505,-0.98349 0.49175,-1.96698 0.5901,-2.95047 0.29505,-2.06533 0.29505,-4.13067 0.39339,-6.196 0.1967,-9.04812 -0.78679,-18.19458 -2.06533,-27.14435 -1.18019,-8.35968 -3.04882,-16.621 -6.68774,-24.29223 -0.68844,-1.47524 -1.47523,-2.95048 -2.45872,-4.22902 -0.3934,-0.59009 -0.88515,-1.08184 -1.37689,-1.57358 -0.49175,-0.49175 -1.57359,-0.88514 -1.67194,-1.47524 -0.0984,-0.29504 0.49175,-1.18019 0.5901,-1.47523 0.1967,-0.49175 0.39339,-0.9835 0.59009,-1.47524 0.3934,-0.98349 0.88514,-2.06533 1.27854,-3.04882 0.68844,-1.86864 0.78679,-3.83562 0.3934,-5.70425 -0.0983,-0.3934 -0.3934,-0.98349 -0.1967,-1.37689 0.0984,-0.1967 0.68844,-0.59009 0.88514,-0.78679 0.3934,-0.49175 0.78679,-1.08184 0.98349,-1.67194 0.68845,-1.57358 0.7868,-3.34387 0.5901,-5.0158 0,-0.29505 -0.0984,-0.5901 -0.0984,-0.88514 -0.0983,-0.7868 -0.0983,-0.88515 0.29505,-1.57359 0.29504,-0.59009 0.59009,-1.08184 0.78679,-1.67193 0.39339,-1.37689 0.59009,-2.95048 1.18019,-4.32737 -0.0984,8.16298 1.47523,16.52266 4.03231,24.29224 2.26203,6.78608 5.50755,13.27713 9.73656,19.07972 7.47454,10.22831 17.99789,17.89954 29.89813,22.0302 13.27713,4.72076 28.0295,5.01581 41.50333,1.08184 15.93256,-4.72075 29.60308,-15.53916 37.66771,-30.09482 4.03231,-7.27784 6.58939,-15.24412 7.96628,-23.40709 0.78679,-4.62241 1.18019,-9.24482 0.98349,-13.86723 -0.1967,-4.03231 -0.68844,-8.35967 -2.06533,-12.09694 -0.5901,-1.57358 -1.08184,-3.04882 -1.57359,-4.62241 1.67194,1.77029 3.44222,3.24552 5.31085,4.72076 1.96699,1.67194 5.70425,4.52406 3.83562,7.47453 -1.27854,1.96699 -3.44222,3.04883 -3.73727,5.50755 -0.0983,1.08184 0,2.16368 0.3934,3.14717 0.0984,0.49175 0.29505,0.9835 0.49174,1.37689 0.3934,0.7868 0.49175,0.98349 0.3934,1.77029 -1.08184,4.91745 -0.29505,9.63821 2.65543,13.76887 3.24552,4.62241 -1.47524,10.62171 -3.73727,14.65402 -0.3934,0.78679 -2.85212,4.32736 -0.98349,4.81911 0.88514,0.19669 2.36038,-0.88515 3.04882,-1.37689 0.98349,-0.5901 1.86864,-1.37689 2.75378,-2.16368 -0.68845,6.49104 -3.63892,12.29364 -6.39269,18.09624 -0.3934,0.78679 -2.26203,3.93396 0,3.73726 1.18018,-0.0983 2.55707,-1.08184 3.54056,-1.67193 0.98349,-0.68845 1.86864,-1.37689 2.75378,-2.16368 -0.3934,2.45872 -0.49175,4.91745 -0.78679,7.27783 -0.3934,2.95047 -1.27854,5.6059 -2.55708,8.26133 -0.5901,1.27853 -1.27854,2.45872 -1.86863,3.63891 -0.49175,0.98349 -1.37689,2.16368 -1.57359,3.24552 -0.29505,1.47524 0.98349,1.37689 2.06533,1.27854 8.35968,-1.18019 15.34246,-6.98278 18.98138,-14.45732 0.68844,1.96699 0.59009,4.03232 0,6.09765 -0.1967,0.68844 -0.78679,1.77028 0.29505,2.06533 0.98349,0.29505 1.86863,-0.88514 2.45872,-1.47524 1.08185,-1.08184 1.96699,-2.36038 2.55708,-3.73726 2.55708,-5.11416 2.65543,-11.31015 1.08184,-16.71935 0.7868,0.88514 1.47524,1.86863 2.36038,2.75377 0.3934,0.3934 0.98349,0.68845 1.47524,0.1967 0.59009,-0.1967 0.1967,-1.37689 0.0984,-2.06533 z m -5.4092,-4.13066 c 0,0 -0.0984,0 -0.0984,-0.0983 -1.77029,-0.3934 -1.18019,1.37688 -0.7868,2.36038 0.7868,2.06533 1.27854,4.32736 1.37689,6.58939 0.29505,4.32736 -0.49174,8.85142 -3.14717,12.49033 0.0983,-1.08184 0.0983,-2.16368 -0.0983,-3.24552 -0.1967,-1.08184 -0.68844,-3.24552 -1.67193,-3.83561 -0.5901,-0.3934 -1.08184,-0.0984 -1.47524,0.49174 -0.49175,0.68845 -0.68845,1.57359 -1.08184,2.36038 -0.3934,0.68845 -0.78679,1.37689 -1.18019,2.06533 -3.44222,5.50755 -8.94977,9.44152 -15.34246,10.62171 1.37689,-2.85213 3.04882,-5.70425 4.13066,-8.75307 1.27854,-3.34387 1.37689,-6.68774 1.67194,-10.12996 0.0983,-0.98349 0.19669,-2.06533 0.49174,-3.04882 0.1967,-0.7868 0.5901,-1.57359 0.68844,-2.36038 0,-0.5901 -0.0983,-1.08184 -0.78679,-1.18019 -0.98349,-0.0983 -1.86863,1.18019 -2.55708,1.67193 -1.18018,1.08184 -2.45872,2.06533 -3.83561,2.85213 2.45873,-5.11416 5.0158,-10.32666 6.19599,-15.93256 0.29505,-1.37689 0.3934,-2.65543 0.49175,-4.03231 0,-0.68845 0.29505,-1.67194 -0.49175,-2.16368 -0.78679,-0.3934 -1.37688,0.29504 -1.86863,0.78679 -1.08184,0.98349 -2.16368,1.86863 -3.34387,2.65543 1.96698,-3.83562 4.81911,-7.47454 5.4092,-11.8019 3.63892,6.58939 5.31085,14.16227 5.90095,21.53846 0.49174,5.80259 1.18019,13.08043 -2.16368,18.19458 -0.3934,0.5901 -1.37689,1.37689 -1.08184,2.16368 0.1967,0.7868 0.98349,0.88515 1.47523,0.49175 0.7868,-0.5901 1.47524,-1.96698 1.96699,-2.85213 0.59009,-1.27853 1.08184,-2.65542 1.37688,-4.03231 1.27854,-5.6059 0.68845,-11.60519 0,-17.21109 -0.88514,-7.27784 -2.85212,-14.55567 -6.68774,-20.85002 5.21251,2.36038 8.94977,7.08114 12.19529,11.6052 3.34387,4.62241 6.3927,9.53986 7.57289,15.24411 -0.98349,-1.08184 -1.96699,-1.96698 -3.24552,-2.65542 z m -17.89954,-39.73305 c -0.98349,0.1967 -1.77029,-0.29504 -2.36038,-0.88514 0.59009,-0.59009 1.27854,-0.88514 2.06533,-0.78679 0.49175,0.0984 1.08184,0.29505 1.27854,0.78679 0.1967,0.49175 -0.49175,0.7868 -0.98349,0.88514 z m -32.94696,-71.1064 c 4.22902,-0.5901 8.06463,1.08184 11.31015,3.73726 3.24552,2.65543 6.196,6.09765 8.06463,9.93326 3.54057,7.27784 1.86863,15.24412 -3.24552,21.24341 -0.1967,0.29505 -0.3934,0.49175 -0.68845,0.78679 -0.0983,0.0983 -0.0983,0.1967 -0.19669,0.1967 -0.0983,0.29505 -0.29505,0.29505 -0.29505,0 -0.1967,-0.0984 -0.68844,-0.88514 -0.88514,-1.08184 -0.29505,-0.39339 -0.29505,-0.39339 -0.1967,-0.78679 0.0984,-0.49175 0.59009,-1.08184 0.78679,-1.57359 0.1967,-0.59009 0.49175,-1.18019 0.68845,-1.77028 0.68844,-2.36038 0.88514,-4.91746 0.29504,-7.37618 -0.68844,-3.34387 -2.55707,-6.3927 -4.8191,-8.94977 -2.36038,-2.75378 -5.4092,-5.4092 -9.04812,-6.196 -3.63892,-0.88514 -7.17949,0.29505 -10.12996,2.36038 -1.57359,1.18019 -3.04882,2.55708 -4.32736,4.03231 -0.3934,0.49175 -1.08184,1.77029 -1.67194,2.06534 -0.39339,0.19669 -1.08184,-0.1967 -1.47523,-0.29505 -0.5901,-0.1967 -1.08184,-0.29505 -1.67194,-0.49175 3.63892,-6.78609 9.44152,-14.45732 17.50614,-15.8342 z m 0.5901,23.50543 c -4.22901,-2.55707 -8.65472,-4.52406 -13.27713,-6.19599 2.36038,-3.04882 5.4092,-6.19599 9.24482,-7.17949 4.6224,-1.27853 8.75307,1.37689 11.80189,4.62241 2.75377,2.85213 5.0158,6.3927 5.4092,10.42501 0.29505,2.65543 -0.3934,5.31085 -1.57359,7.67123 -3.44221,-3.63892 -7.37618,-6.78609 -11.60519,-9.34317 z m 15.73586,35.20899 c 1.77028,-1.57359 3.54056,-3.14718 5.31085,-4.72076 0.49174,2.16368 0.88514,4.32736 1.18019,6.58939 -2.16368,-0.68844 -4.32736,-1.27854 -6.49104,-1.86863 z m 6.58939,11.90024 c -1.67194,18.98138 -9.83491,37.07761 -25.37407,48.68281 -4.62241,3.44222 -9.63822,6.09764 -14.94907,8.16298 2.16368,-3.24552 3.93397,-6.68774 5.01581,-10.42501 1.18019,-4.03231 2.16368,-9.04812 0.98349,-13.17878 -2.45873,-8.16298 -12.58869,-11.31015 -20.06322,-12.58869 -8.85142,-1.37688 -18.78468,-1.08184 -27.24271,2.06533 -4.8191,1.86864 -9.83491,5.01581 -11.70354,10.12996 -1.27854,3.54057 -0.5901,7.57288 0.1967,11.11345 0.98349,4.42571 2.85212,8.55638 5.31085,12.29364 -9.83491,-3.93396 -18.48963,-10.425 -25.07902,-18.68633 -8.06463,-10.22831 -12.58869,-22.91534 -14.16228,-35.70073 -0.19669,-1.96698 -0.39339,-3.93396 -0.49174,-5.90094 0,-0.88515 0,-1.77029 0,-2.65543 0,-0.49175 -0.0984,-0.98349 0.29505,-1.47524 0.29504,-0.29504 1.47523,-0.49174 1.86863,-0.59009 3.34387,-0.98349 6.78609,-1.86864 10.32666,-2.55708 7.67123,-1.57358 15.34246,-2.55708 23.11204,-3.24552 16.4243,-1.47524 32.8486,-1.47524 49.2729,-0.59009 8.45803,0.49174 17.0144,1.37688 25.37407,2.75377 3.93397,0.68844 7.96628,1.47524 11.8019,2.45873 1.18019,0.29505 2.36038,0.59009 3.54057,0.98349 0.29504,0.0983 0.68844,0.1967 0.98349,0.29505 0.88514,0.29504 1.08184,0.29504 1.27853,1.27854 0.1967,2.45872 -0.0983,5.11415 -0.29504,7.37618 z m -62.84509,61.0748 c -5.99929,0 -11.99859,-0.68845 -17.70284,-2.26203 -1.18019,-0.29505 -2.85212,-0.5901 -3.93396,-1.27854 -0.78679,-0.49175 -1.37689,-1.67193 -1.86863,-2.45873 -1.18019,-1.86863 -2.26203,-3.93396 -3.14718,-5.99929 -0.98349,-2.36038 -1.67193,-4.81911 -2.06533,-7.27784 -0.39339,-2.45873 -0.78679,-5.2125 -0.0983,-7.67123 1.08184,-3.93396 4.52406,-6.49104 7.96628,-8.26132 4.42571,-2.16368 9.44152,-3.24552 14.45732,-3.73727 5.6059,-0.5901 11.31015,-0.29505 16.71935,0.78679 4.52406,0.98349 9.34317,2.45873 12.88373,5.6059 1.67194,1.47524 3.14718,3.34387 3.63892,5.6059 0.68845,2.75378 0.1967,5.90095 -0.29505,8.65472 -0.98349,5.11416 -3.34387,9.93326 -6.39269,14.16228 -0.98349,1.37688 -2.75377,1.57358 -4.32736,1.96698 -1.57358,0.39339 -3.14717,0.78679 -4.81911,1.08184 -3.73726,0.68844 -7.37618,1.08184 -11.0151,1.08184 z m -58.12432,-72.97504 c -2.26203,0.59009 -4.42571,1.18019 -6.58939,1.86863 0.1967,-2.26203 0.49174,-4.52406 1.08184,-6.78609 1.86863,1.67194 3.73726,3.34387 5.50755,4.91746 z m -1.27854,-15.93256 c 2.16368,-0.59009 4.42571,-1.08184 6.68774,-1.57359 -1.27854,5.40921 -2.55708,10.81841 -3.93396,16.22761 -1.67194,-1.47524 -3.34387,-2.95048 -5.01581,-4.42571 -0.3934,-0.3934 -0.88514,-0.68845 -1.18019,-1.08184 -0.49174,-0.49175 -0.29505,-0.29505 0,-1.08184 0.98349,-2.75378 1.96698,-5.50755 3.44222,-8.06463 z m 16.621,-17.21109 c 12.09694,-7.57289 26.65261,-10.91676 40.91323,-10.91676 14.16227,-0.0983 28.71794,2.95048 40.91323,10.22831 6.49104,3.83562 12.19529,9.04812 16.4243,15.34246 -14.26062,-3.34387 -29.11133,-4.72075 -43.76535,-5.2125 -15.24411,-0.59009 -30.58658,-0.1967 -45.73234,1.37689 -8.06463,0.88514 -16.12925,2.06533 -23.99718,3.93396 3.93396,-5.90094 9.24481,-10.8184 15.24411,-14.75236 z m 95.79204,32.4552 c -4.62241,-0.98349 -9.24482,-1.77028 -13.96558,-2.36038 3.34387,-4.52406 6.78609,-8.94977 10.12996,-13.47382 1.27854,5.2125 2.55708,10.52335 3.83562,15.8342 z m -107.79063,0 c 1.27854,-5.31085 2.55708,-10.52335 3.83561,-15.8342 3.34387,4.52405 6.78609,8.94976 10.12996,13.47382 -4.72075,0.5901 -9.34316,1.37689 -13.96557,2.36038 z m 5.0158,-17.40779 c 5.50755,-0.98349 11.11345,-1.77028 16.621,-2.36038 -2.06533,5.4092 -4.13066,10.72005 -6.29434,16.12926 -3.34387,-4.62241 -6.88444,-9.14647 -10.32666,-13.76888 z m 81.03967,-2.36038 c 5.6059,0.5901 11.11345,1.27854 16.621,2.36038 -3.44222,4.62241 -6.98278,9.14647 -10.425,13.76888 -2.06534,-5.40921 -4.13067,-10.72006 -6.196,-16.12926 z m 4.52406,16.91605 c -4.72076,-0.5901 -9.34316,-0.98349 -14.06392,-1.27854 2.65542,-4.81911 5.31085,-9.63821 7.96628,-14.45732 1.96698,5.2125 4.03231,10.52336 6.09764,15.73586 z m -7.57288,-17.2111 c -2.65543,4.91746 -5.4092,9.73657 -8.06463,14.65402 -2.65542,-5.2125 -5.31085,-10.425 -7.96628,-15.73586 5.31086,0.29505 10.72006,0.5901 16.03091,1.08184 z m -9.73656,15.73586 c -5.90095,-0.29505 -11.70355,-0.49174 -17.60449,-0.59009 3.24552,-5.11416 6.39269,-10.12996 9.63821,-15.24412 2.65543,5.31086 5.31085,10.52336 7.96628,15.83421 z m -56.059,1.47524 c 2.06533,-5.2125 4.03232,-10.52336 6.09765,-15.73586 2.65542,4.81911 5.31085,9.63821 7.96628,14.45732 -4.72076,0.29505 -9.44152,0.68844 -14.06393,1.27854 z m 7.47454,-17.2111 c 5.31085,-0.49174 10.72005,-0.78679 16.12925,-0.98349 -2.65543,5.21251 -5.31085,10.42501 -7.96628,15.73586 -2.75377,-4.91745 -5.4092,-9.83491 -8.16297,-14.75237 z m 19.47312,-1.08184 c 6.49104,-0.19669 12.98208,-0.19669 19.47312,0 -3.24552,5.11416 -6.49104,10.32666 -9.73656,15.44081 -3.24552,-5.2125 -6.49104,-10.32665 -9.73656,-15.44081 z m 7.96628,16.22761 c -5.90095,0 -11.8019,0.1967 -17.60449,0.59009 2.65542,-5.2125 5.31085,-10.52335 8.06462,-15.73586 3.14718,5.01581 6.29435,10.12996 9.53987,15.14577 z m 57.53423,4.32736 c -1.27854,-5.4092 -2.55708,-10.8184 -3.93397,-16.22761 1.18019,0.29505 2.45873,0.49175 3.63892,0.7868 0.5901,0.0984 1.47524,0.1967 1.96698,0.49174 0.68845,0.29505 0.88515,0.98349 1.18019,1.57359 1.27854,2.45873 2.36038,5.11415 3.14718,7.86793 -1.96699,1.86863 -4.03232,3.73726 -5.9993,5.50755 z M 253.41583,128.0305 c 2.95047,-3.14717 6.88443,-5.70424 11.40849,-4.72075 3.93397,0.88514 7.08114,4.03231 9.53987,7.08113 -9.34317,3.24552 -18.09624,8.16298 -24.88233,15.34246 -3.04882,-6.29434 -0.68844,-12.68703 3.93397,-17.70284 z m 23.99718,1.47524 c -0.78679,0.1967 -0.88514,0.3934 -1.47524,-0.1967 -0.88514,-0.88514 -1.57358,-1.96698 -2.55707,-2.85212 -1.67194,-1.77029 -3.73727,-3.24552 -5.9993,-4.22901 -4.62241,-1.96699 -9.34316,-0.68845 -13.08043,2.45872 -3.93397,3.24552 -7.27784,7.76958 -8.06463,12.88374 -0.29505,1.77028 -0.1967,3.54057 0.0983,5.2125 0.1967,0.88514 0.3934,1.67194 0.68844,2.45873 0.29505,0.68844 0.9835,1.67193 0.7868,2.26203 -0.0984,0.1967 -1.18019,1.67193 -1.27854,1.67193 -0.1967,0 -0.98349,-1.08184 -1.08184,-1.27854 -0.88514,-1.08184 -1.67194,-2.16368 -2.36038,-3.34387 -1.67193,-2.85212 -2.55708,-5.99929 -2.65543,-9.34316 0,-4.13066 1.47524,-7.86793 3.73727,-11.31015 2.65543,-3.93396 6.29434,-7.76958 10.6217,-9.63821 7.37619,-3.24552 14.35897,1.37689 19.07973,6.88444 2.06533,2.36037 3.73727,4.91745 5.31085,7.57288 -0.49174,0.39339 -1.18018,0.59009 -1.77028,0.78679 z m -46.91253,54.48541 c -0.29504,-0.1967 -0.59009,-0.3934 -0.49174,-0.78679 0.0984,-0.3934 0.49174,-0.7868 0.88514,-0.88515 0.68844,-0.19669 1.08184,0.88515 1.27854,1.47524 -0.49175,0.1967 -0.98349,0.3934 -1.67194,0.1967 z m 4.72076,35.40568 c 0.68844,1.86863 1.27854,3.83562 1.77029,5.8026 0.29504,1.08184 0.59009,1.77028 -0.1967,2.65542 -0.68845,0.7868 -1.47524,1.47524 -2.26203,2.26203 -2.75378,2.75378 -5.50755,5.50755 -8.26133,8.26133 -0.29505,-4.81911 -0.39339,-9.73656 -0.0983,-14.55567 0.29505,-5.0158 0.88514,-10.03161 2.45873,-14.85072 3.83562,1.86864 5.31085,6.68774 6.58939,10.42501 z m -6.88444,62.45169 c 1.57359,-0.68845 2.95048,-0.1967 3.83562,1.27853 0.78679,1.37689 0.29505,2.85213 0.0983,4.32737 -0.49175,2.75377 -0.88514,5.6059 -1.27854,8.35967 -1.37689,-2.06533 -2.55708,-4.13066 -3.54057,-6.39269 -0.59009,-1.37689 -1.18019,-2.75378 -1.57358,-4.22901 -0.3934,-1.47524 1.08184,-2.75378 2.45872,-3.34387 z m -3.34387,0.19669 c -1.27854,-6.09764 -1.47523,-12.29363 -2.26203,-18.39128 -0.0983,-1.08184 -0.78679,-2.06533 -1.86863,-1.08184 -0.88514,0.78679 -1.57359,2.06533 -2.36038,3.04882 -0.68844,0.98349 -1.37689,1.96699 -1.96698,2.95048 -3.04882,-9.44152 -3.54057,-19.37478 -2.45873,-29.20969 2.06533,1.57359 4.03232,3.24552 5.9993,5.0158 0.88514,0.7868 1.77028,1.67194 2.65542,2.55708 0.7868,0.78679 1.96699,1.67194 2.65543,2.65543 0.59009,0.98349 0.59009,2.85212 0.78679,3.93396 0.29505,1.47524 0.49175,2.95048 0.7868,4.52406 0.49174,2.85213 0.98349,5.70425 1.27853,8.65472 0.0984,0.98349 0,2.55708 0.3934,3.44222 0.1967,0.29505 0.3934,0.5901 0.78679,0.5901 1.57359,0.19669 0.98349,-2.16368 0.88515,-2.95048 -0.5901,-5.4092 -1.77029,-10.72005 -2.55708,-16.12925 -0.0984,-0.98349 -0.49175,-2.26203 0.0983,-3.14717 0.39339,-0.5901 1.08184,-0.98349 1.57358,-1.47524 1.18019,-0.98349 2.36038,-2.06533 3.54057,-2.95047 2.26203,-1.86864 4.52406,-3.63892 6.78609,-5.4092 0.98349,6.29434 1.67194,12.58868 2.06533,18.98137 0.29505,5.31086 0.88514,11.2118 -0.59009,16.32596 -1.27854,-1.77029 -2.26203,-3.73727 -3.44222,-5.6059 -0.49175,-0.68845 -1.37689,-2.06533 -2.16368,-0.88514 -0.49175,0.59009 -0.3934,2.06533 -0.49175,2.75377 -0.1967,1.37689 -0.39339,2.65543 -0.59009,4.03231 -0.3934,2.45873 -0.7868,4.91746 -1.18019,7.37619 -2.45873,-3.04882 -5.9993,-2.06533 -8.35968,0.39339 z m 14.06393,-45.53563 c -0.1967,0.29504 -0.68845,0.59009 -1.08184,0.88514 -0.7868,0.59009 -1.57359,1.27854 -2.26203,1.86863 -2.95048,2.36038 -5.90095,4.62241 -8.65473,7.17949 -0.0983,-0.7868 -0.19669,-1.57359 -0.29504,-2.26203 -0.0983,-0.88515 -0.3934,-2.06534 -0.29505,-2.85213 0.0983,-0.98349 1.18019,-1.67193 1.86863,-2.36038 0.68845,-0.68844 1.27854,-1.37688 1.96699,-1.96698 2.55707,-2.55708 5.11415,-5.0158 7.57288,-7.57288 0.39339,1.86863 0.78679,3.63892 1.08184,5.50755 0.29504,0.49175 0.49174,1.08184 0.0984,1.57359 z m -14.65402,0.78679 c -1.57359,-2.06533 -3.24552,-4.03232 -5.11416,-5.8026 -0.39339,-0.3934 -0.88514,-0.78679 -1.37688,-1.18019 -0.3934,-0.29505 -1.47524,-0.78679 -1.67194,-1.27854 -0.1967,-0.49174 0.29505,-1.47523 0.3934,-2.06533 0.1967,-0.78679 0.49174,-1.47524 0.68844,-2.26203 1.86864,-5.4092 4.72076,-10.52335 8.85142,-14.65402 -2.06533,8.85142 -2.26203,18.19459 -1.77028,27.24271 z m -2.26203,0.1967 c 1.08184,1.27853 2.36038,2.65542 2.55708,4.32736 0.19669,1.57358 0.29504,3.14717 0.49174,4.72075 -2.36038,-2.36037 -4.72076,-4.6224 -7.27783,-6.68773 -0.98349,-0.7868 -3.34387,-1.96699 -3.34387,-3.24553 -0.0983,-1.77028 0.59009,-3.73726 0.98349,-5.50755 2.55708,1.77029 4.62241,4.03232 6.58939,6.3927 z m 3.14717,-46.42078 c -0.0984,-0.49175 -0.29505,-1.37689 0.3934,-1.47524 0.49174,0 0.98349,0.29505 1.37688,0.49174 1.08184,0.5901 1.77029,1.47524 2.36038,2.45873 -1.57358,0.3934 -3.54056,0.29505 -4.13066,-1.47523 z"
   class="st9" />

	<path
   style="opacity:1;fill:#ffffff;fill-opacity:1;stroke:#ffffff;stroke-width:1.69036818;stroke-miterlimit:4;stroke-dasharray:none;stroke-opacity:1"
   inkscape:connector-curvature="0"
   id="path3770"
   d="m 311.53622,215.84162 c -2,-1.2 -4.7,-1.1 -7,-1.1 -2.1,0 -4.4,-0.1 -6.3,0.7 -1.9,0.8 -2.8,2.6 -3.1,4.5 -0.3,2.5 0.3,4.3 2.3,5.9 0.9,0.7 1.9,1.3 2.9,1.8 0.5,0.2 0.9,0.4 1.4,0.6 0.5,0.2 1.6,0.3 1.8,0.7 0.4,0.6 0,2.4 0,3.1 0,1 0,2 0,3 0,0.8 -0.4,2.7 0.5,3.2 0.5,0.3 1.1,0 1.4,-0.4 0.2,-0.4 0.1,-1.2 0.1,-1.6 0,-1.2 0,-2.4 0,-3.6 0,-1 0,-2 0,-3 0,-0.7 -0.1,-0.7 0.3,-1 0.2,-0.1 0.7,-0.2 0.9,-0.3 1.2,-0.4 2.4,-0.9 3.4,-1.6 1.8,-1.1 3.6,-2.8 3.7,-5 0.3,-2.1 -0.3,-4.7 -2.3,-5.9 z"
   class="st9" />

	<path
   style="opacity:1;fill:#ffffff;fill-opacity:1;stroke:#ffffff;stroke-width:1.69036818;stroke-miterlimit:4;stroke-dasharray:none;stroke-opacity:1"
   inkscape:connector-curvature="0"
   id="path3772"
   d="m 275.93622,176.14162 c -5.1,0.1 -8.8,4.2 -10.2,8.9 -1.6,5.2 -0.6,11.5 3.2,15.5 3.3,3.5 8.5,4.2 12.5,1.3 4.4,-3.2 6,-9.3 5.2,-14.5 -0.8,-5.5 -4.7,-11.1 -10.7,-11.2 z m -2,5.7 c 2.5,0 3.9,2.8 3.9,5 0,2.2 -1.3,5 -3.9,5 -2.6,0 -3.8,-2.8 -3.9,-5 0.1,-2.2 1.3,-5 3.9,-5 z m 4.2,11.1 c 3.2,0 3.1,4.7 0,4.9 -3.1,-0.2 -3.2,-4.9 0,-4.9 z"
   class="st9" />

	<path
   style="opacity:1;fill:#ffffff;fill-opacity:1;stroke:#ffffff;stroke-width:1.69036818;stroke-miterlimit:4;stroke-dasharray:none;stroke-opacity:1"
   inkscape:connector-curvature="0"
   id="path3774"
   d="m 333.13622,176.14162 c -5.1,0.1 -8.8,4.2 -10.2,8.9 -1.6,5.2 -0.6,11.5 3.2,15.5 3.3,3.5 8.5,4.2 12.5,1.3 4.4,-3.2 6,-9.3 5.2,-14.5 -0.8,-5.5 -4.7,-11.1 -10.7,-11.2 z m -1.9,5.7 c 2.5,0 3.9,2.8 3.9,5 0,2.2 -1.3,5 -3.9,5 -2.6,0 -3.8,-2.8 -3.9,-5 0.1,-2.2 1.3,-5 3.9,-5 z m 4.2,11.1 c 3.2,0 3.1,4.7 0,4.9 -3.2,-0.2 -3.2,-4.9 0,-4.9 z"
   class="st9" />

</g>
  </g>
  <style
     type="text/css"
     id="style3754">
	.st0{fill:#99827A;}
	.st1{fill:#6C7786;}
	.st2{fill:#462D1A;}
	.st3{fill:#81B7BA;}
	.st4{fill:#7BBDAA;}
	.st5{fill:#F7A592;}
	.st6{fill:#516E76;}
	.st7{fill:#685850;}
	.st8{fill:#A67D50;}
	.st9{fill:#8EA184;}
	.st10{fill:#AA8D86;}
	.st11{fill:#716558;}
	.st12{fill:#F06666;}
	.st13{fill:#2D556B;}
	.st14{fill:#634E42;}
	.st15{fill:#463F1C;}
	.st16{fill:#534741;}
	.st17{fill:#998675;}
	.st18{fill:#B99875;}
	.st19{fill:#AE9C96;}
	.st20{fill:#F9B8A9;}
	.st21{fill:#9BC6C8;}
	.st22{fill:#AFBDC4;}
	.st23{fill:#BDCCD4;}
	.st24{fill:#221F20;}
	.st25{fill:#BE6F77;}
</style>
  <style
     id="style3754-0"
     type="text/css">
	.st0{fill:#99827A;}
	.st1{fill:#6C7786;}
	.st2{fill:#462D1A;}
	.st3{fill:#81B7BA;}
	.st4{fill:#7BBDAA;}
	.st5{fill:#F7A592;}
	.st6{fill:#516E76;}
	.st7{fill:#685850;}
	.st8{fill:#A67D50;}
	.st9{fill:#8EA184;}
	.st10{fill:#AA8D86;}
	.st11{fill:#716558;}
	.st12{fill:#F06666;}
	.st13{fill:#2D556B;}
	.st14{fill:#634E42;}
	.st15{fill:#463F1C;}
	.st16{fill:#534741;}
	.st17{fill:#998675;}
	.st18{fill:#B99875;}
	.st19{fill:#AE9C96;}
	.st20{fill:#F9B8A9;}
	.st21{fill:#9BC6C8;}
	.st22{fill:#AFBDC4;}
	.st23{fill:#BDCCD4;}
	.st24{fill:#221F20;}
	.st25{fill:#BE6F77;}
</style>
</svg>
